<?xml version="1.0" encoding="utf-8"?>
<!-- Generator: Adobe Illustrator 24.1.0, SVG Export Plug-In . SVG Version: 6.00 Build 0)  -->
<svg version="1.1" id="Lager_1" xmlns="http://www.w3.org/2000/svg" xmlns:xlink="http://www.w3.org/1999/xlink" x="0px" y="0px"
	 viewBox="0 0 700.9 170.9" style="enable-background:new 0 0 700.9 170.9;" xml:space="preserve">
<style type="text/css">
	.st0{fill:#FFFFFF;}
</style>
<g>
	<path class="st0" d="M136.2,28.9c-4.1,0-7.8-1.2-11.1-4.1c-2.9-2.9-4.5-6.2-4.5-10.3s1.7-7.4,4.5-10.3C128,1.2,131.7,0,135.8,0
		c4.1,0,7.8,1.2,10.7,4.1c2.9,2.9,4.5,6.2,4.5,10.3s-1.7,7.4-4.5,10.3C144.1,27.2,140.4,28.9,136.2,28.9z M121,134.2V39.6h30.1v94.5
		H121z"/>
	<path class="st0" d="M247.3,68.5l-27.7,0.8c-0.4-2.1-1.2-3.7-2.5-5.4c-1.2-1.7-2.9-2.9-5-3.7c-2.1-0.8-4.5-1.2-7-1.2
		c-3.3,0-6.6,0.8-9.1,2.1c-2.5,1.2-3.7,3.3-3.7,5.8c0,1.7,0.8,3.3,2.1,5c1.7,1.2,4.1,2.5,8.3,3.3l18.2,3.3c9.5,1.7,16.5,5,21.1,9.1
		c4.5,4.1,7,9.9,7,16.5c0,6.6-2.1,12-5.8,16.9c-3.7,5-9.1,8.7-15.7,11.1c-6.6,2.5-14,4.1-22.7,4.1c-13.6,0-23.9-2.9-31.8-8.3
		c-7.8-5.4-12.4-13.2-13.2-22.3l29.7-0.8c0.8,3.3,2.5,6.2,5,7.8c2.9,1.7,6.2,2.9,10.7,2.9c3.7,0,7-0.8,9.5-2.1s3.7-3.3,3.7-5.8
		c0-2.1-0.8-3.7-2.9-5c-1.7-1.2-4.5-2.5-8.7-2.9l-16.5-3.3c-9.5-1.7-16.5-5-21.1-9.5c-4.5-4.5-7-10.7-7-17.8c0-6.2,1.7-11.6,5-16.1
		c3.3-4.5,8.3-7.8,14.4-10.3c6.2-2.5,13.6-3.7,22.3-3.7c12.8,0,22.7,2.5,30.1,7.8C242.7,52,246.9,59.4,247.3,68.5z"/>
	<path class="st0" d="M303.4,136.2c-9.9,0-18.6-2.1-25.6-6.2c-7-4.1-12.4-9.9-16.5-17.3c-3.7-7.4-5.8-15.7-5.8-25.6
		c0-9.5,2.1-18.2,5.8-25.6c3.7-7.4,9.5-13.2,16.5-17.3s15.7-6.2,25.6-6.2c8.7,0,16.5,1.7,22.7,4.5c6.6,3.3,11.6,7.4,15.3,13.2
		c3.7,5.8,5.8,12.4,5.8,20.2h-28.1c-0.4-5-2.1-8.7-5-11.6c-2.9-2.9-6.2-4.1-10.3-4.1c-3.3,0-6.6,0.8-9.1,2.9c-2.5,2.1-4.5,5-6.2,8.7
		c-1.7,3.7-2.1,8.7-2.1,14c0,5.8,0.8,10.3,2.1,14c1.7,3.7,3.3,6.6,6.2,8.7c2.5,2.1,5.8,2.9,9.1,2.9c2.9,0,5.4-0.4,7.4-1.7
		c2.1-1.2,4.1-2.9,5.4-5.4c1.2-2.5,2.5-5,2.5-8.7h28.1c-0.4,7.8-2.1,14.4-5.8,20.6c-3.7,5.8-8.7,10.3-15.3,13.6
		C319.9,134.6,312.5,136.2,303.4,136.2z"/>
	<path class="st0" d="M433.9,170.9c-9.1,0-16.5-1.2-23.1-3.7c-6.6-2.5-11.6-5.8-15.3-9.9c-3.7-4.1-5.8-9.1-6.6-14.4l28.5-1.7
		c0.4,1.7,1.7,3.3,2.9,4.5c1.7,1.2,3.3,2.5,5.8,3.3c2.5,0.8,5,1.2,8.3,1.2c5,0,9.1-1.2,12.4-3.7s5-6.6,5-12v-16.5h-1.2
		c-1.2,2.9-2.9,5.4-5.4,7.8c-2.5,2.5-5.4,4.1-9.1,5.4c-3.7,1.2-7.8,2.1-12.4,2.1c-7,0-13.2-1.7-19-5c-5.8-3.3-10.3-8.3-13.6-14.9
		c-3.3-6.6-5-15.7-5-26.4c0-11.1,1.7-20.2,5.4-27.2c3.7-7,8.3-12.4,14-16.1c5.8-3.3,12-5.4,18.6-5.4c5,0,9.1,0.8,12.8,2.5
		c3.7,1.7,6.6,3.7,8.7,6.6c2.5,2.5,4.1,5.4,5.4,8.3h0.8V39.6h30.1v94.9c0,7.8-2.1,14.4-6.2,19.8c-4.1,5.4-9.5,9.5-16.9,12.4
		C451.6,169.7,443.3,170.9,433.9,170.9z M434.7,111c3.7,0,6.6-0.8,9.5-2.9c2.5-2.1,4.5-4.5,5.8-8.3c1.2-3.7,2.1-7.8,2.1-12.8
		s-0.8-9.5-2.1-13.2c-1.2-3.7-3.3-6.6-5.8-8.7c-2.5-2.1-5.8-2.9-9.5-2.9s-7,0.8-9.5,2.9c-2.5,2.1-4.5,5-5.8,8.7s-2.1,8.3-2.1,13.2
		s0.8,9.5,2.1,12.8c1.2,3.7,3.3,6.2,5.8,8.3C428.1,110.2,431,111,434.7,111z"/>
	<path class="st0" d="M539.9,136.2c-9.9,0-18.6-2.1-25.6-6.2c-7-4.1-12.8-9.9-16.5-16.9c-3.7-7.4-5.8-15.7-5.8-25.6
		c0-9.9,2.1-18.2,5.8-25.6c3.7-7.4,9.5-13.2,16.5-16.9c7-4.1,15.7-6.2,25.6-6.2s18.6,2.1,25.6,6.2s12.8,9.9,16.5,16.9
		c3.7,7.4,5.8,15.7,5.8,25.6c0,9.5-2.1,18.2-5.8,25.6c-3.7,7.4-9.5,13.2-16.5,16.9C558.5,134.2,549.8,136.2,539.9,136.2z
		 M539.9,113.5c3.7,0,6.6-1.2,9.1-3.3c2.5-2.1,4.5-5.4,5.8-9.1c1.2-4.1,2.1-8.7,2.1-13.6c0-5.4-0.8-9.9-2.1-13.6
		c-1.2-4.1-3.3-7-5.8-9.1c-2.5-2.1-5.4-3.3-9.1-3.3c-3.7,0-7,1.2-9.5,3.3c-2.5,2.1-4.5,5.4-5.8,9.1c-1.2,4.1-2.1,8.7-2.1,13.6
		c0,5.4,0.8,9.9,2.1,13.6c1.2,4.1,3.3,7,5.8,9.1C533.3,112.3,536.2,113.5,539.9,113.5z"/>
	<path class="st0" d="M627.9,8.3v125.9h-30.1V8.3H627.9z"/>
	<path class="st0" d="M677.8,34.3c0-2.9,0.8-5,2.1-6.6c1.2-1.7,3.7-2.5,7.4-2.5c1.2,0,2.9,0,4.5,0.4c1.7,0.4,2.9,0.4,4.1,0.8l5-21.9
		c-1.7-0.4-4.5-1.2-8.3-1.7c-3.7-0.8-7.8-0.8-12-0.8c-6.6,0-12,1.2-16.9,3.7c-5,2.5-8.7,6.2-11.6,10.7c-2.9,5-4.1,10.7-4.1,18.2v5
		h-13.2v22.3h12.8v72.2h30.1V61.9H696V39.6h-18.2L677.8,34.3L677.8,34.3z"/>
</g>
<path class="st0" d="M101.1,37.6c-5-9.5-12.4-16.5-21.5-21.9c-9.5-5-20.2-7.4-33-7.4h-45C0.8,8.3,0,9.1,0,9.9v50.8
	c8.7-4.1,20.2-7.8,33-10.7c28.1-6.2,52.4-5,54.1,2.5c1.7,7.4-19.8,18.6-48.3,24.8C23.9,80.5,9.9,81.7,0,80.9v51.2
	c0,0.8,0.8,1.7,1.7,1.7h45c12.8,0,23.9-2.5,33-7.4c9.5-5,16.5-12.4,21.5-21.9s7.4-20.6,7.4-33.8C108.6,58.2,106.1,46.6,101.1,37.6z"
	/>
</svg>
